<svg width="72" height="65" viewBox="0 0 72 65" fill="none" xmlns="http://www.w3.org/2000/svg">
<path d="M70.865 32.28L59.8949 20.1749C59.0122 19.2922 57.8774 18.7878 56.7425 18.7878H45.1418C43.1243 18.7878 41.6111 20.427 41.6111 22.3185V37.8493L36.4531 28.3928L39.0892 19.1663C39.2153 18.6619 39.0892 18.2836 38.7109 17.9054L31.1452 10.3397C31.0192 10.2137 30.7669 10.0875 30.6408 10.0875L23.4238 7.68179C23.3541 7.63603 23.2795 7.59686 23.2012 7.56556C23.0848 7.51909 22.9642 7.49425 22.8432 7.48821L19.2922 6.30454C19.04 6.30454 18.7878 6.17848 18.5357 6.30454L12.8011 7.86864L16.2662 1.89132C16.5185 1.513 16.5185 1.00862 16.2662 0.63044C16.0141 0.25212 15.6358 0 15.1314 0H1.26088C0.50438 0 0 0.50424 0 1.26088V23.9578V41.611V42.8719V53.716C0 55.3552 1.38708 56.7423 3.02628 56.7423H3.87192C4.474 61.0503 8.12062 64.308 12.6095 64.308C17.0984 64.308 20.7449 61.0505 21.3471 56.7423H48.005C48.607 61.0503 52.2537 64.308 56.7425 64.308C61.2314 64.308 64.8779 61.0505 65.4801 56.7423H68.8477C70.4869 56.7423 71.8739 55.3552 72 53.716V36.5673V35.3065V35.1804C71.9999 34.0454 71.6215 33.0367 70.865 32.28ZM68.8475 34.0454H50.4377V21.4359H56.7424C57.2468 21.4359 57.6251 21.562 58.0033 21.9403L68.8475 34.0454ZM40.7056 41.6111H21.4361V39.0892C21.4361 39.0892 21.5621 39.0892 21.5621 38.9632L32.9106 37.7023C33.5411 37.7023 33.9194 37.324 34.0454 36.8196L35.4365 31.9511L40.7056 41.6111ZM7.5657 41.6111V34.0613L11.3485 35.4798V41.6111H7.5657ZM13.8704 34.6759V30.2625C13.8704 28.8754 15.0052 27.7406 16.3923 27.7406C16.8258 27.7406 17.2346 27.8514 17.5918 28.0462C17.7347 28.1241 17.8693 28.2154 17.994 28.3184C18.181 28.473 18.3456 28.6538 18.482 28.8551C18.7546 29.2577 18.9142 29.7424 18.9142 30.2625V41.611H13.8704V34.6759ZM36.4413 19.1663L31.7758 35.3063L21.5621 36.4411H21.4361V30.2625C21.4361 28.0976 20.0536 26.24 18.1281 25.5285L23.5479 10.3529L29.6322 12.3571L36.4413 19.1663ZM18.9142 8.82658L21.1222 9.55388L15.4985 25.3003C13.147 25.7255 11.3485 27.7934 11.3485 30.2625V32.7844L8.3222 31.6496L2.69148 23.7666L6.05242 12.4833L10.4658 11.2224C10.5968 11.1788 10.7114 11.1194 10.8122 11.0507L18.9142 8.82658ZM2.5219 2.52176H12.9877L9.33882 8.81296L4.66548 10.0875C4.28716 10.2135 3.90898 10.5918 3.78278 10.9702L2.5219 15.1734V2.52176ZM2.5219 27.8668L5.0438 31.3975V41.6111H2.5219V27.8668ZM12.6095 61.7862C9.07884 61.7862 6.30482 59.0122 6.30482 55.4815C6.30482 51.9509 9.07884 49.1768 12.6095 49.1768C16.1402 49.1768 18.9142 51.9509 18.9142 55.4815C18.9142 59.012 16.14 61.7862 12.6095 61.7862ZM56.7425 61.7862C53.2119 61.7862 50.4379 59.0122 50.4379 55.4815C50.4379 51.9509 53.2119 49.1768 56.7425 49.1768C60.2732 49.1768 63.0472 51.9509 63.0472 55.4815C63.0472 59.012 60.2731 61.7862 56.7425 61.7862ZM68.8475 54.2205H65.48C64.8779 49.9124 61.2313 46.6548 56.7424 46.6548C56.7219 46.6548 56.702 46.6562 56.6815 46.6563C56.6597 46.6562 56.6381 46.6548 56.6162 46.6548C52.2028 46.6548 48.5461 49.9332 47.9157 54.2205H21.3471C20.7825 50.1807 17.5404 47.0662 13.4373 46.6938C13.4076 46.691 13.3774 46.6896 13.3473 46.6871C13.2439 46.6787 13.1404 46.6702 13.0358 46.6653C12.8945 46.6586 12.7524 46.6548 12.6094 46.6548C12.4663 46.6548 12.3243 46.6586 12.1829 46.6653C12.0783 46.6701 11.9748 46.6787 11.8714 46.6871C11.8415 46.6896 11.8113 46.691 11.7814 46.6938C7.67828 47.0662 4.43624 50.1807 3.87164 54.2205H3.026C2.77374 54.2205 2.52162 53.9682 2.52162 53.7161V44.1329H6.3044H12.6091H20.1748H44.1328V43.2186C44.1992 42.9971 44.2018 42.7601 44.1328 42.5295V22.4447C44.1328 21.8143 44.6371 21.4359 45.1415 21.4359H47.9155V34.4236C47.9155 35.5584 48.9243 36.5672 50.0591 36.5672H69.3516V40.35H63.0469C62.2904 40.35 61.7861 40.8544 61.7861 41.6109C61.7861 42.3674 62.2904 42.8717 63.0469 42.8717H69.3516V53.7158C69.3519 53.9684 69.0998 54.2205 68.8475 54.2205Z" fill="#FC6601"/>
</svg>
