<svg width="50" height="50" viewBox="0 0 50 50" fill="none" xmlns="http://www.w3.org/2000/svg">
<path fill-rule="evenodd" clip-rule="evenodd" d="M26.9425 14.693L24.9791 8.33337L23.0577 14.6492H16.6667L21.8463 18.5965L19.8413 25L25.0209 21.0527L30.2005 25L28.1537 18.6404L33.3334 14.693H26.9425Z" fill="white"/>
<path fill-rule="evenodd" clip-rule="evenodd" d="M9.31099 0H40.6891V3.10367H50V14.1372C50 17.0634 48.8375 19.8699 46.7685 21.9391C45.0812 23.6261 42.9042 24.7104 40.5716 25.0534C40.2286 27.3859 39.1445 29.563 37.4573 31.25C35.4284 33.2789 32.6906 34.4362 29.8263 34.4805V38.9664C29.8263 39.3328 29.9716 39.6841 30.2307 39.943C30.4898 40.2021 30.8411 40.3477 31.2073 40.3477C32.899 40.3477 34.5211 41.0195 35.7172 42.2156C36.9133 43.4117 37.5854 45.0341 37.5854 46.7255V50H12.4147V46.7255C12.4147 45.0341 13.0867 43.4117 14.2828 42.2156C15.4789 41.0195 17.1011 40.3477 18.7927 40.3477C19.159 40.3477 19.5103 40.2021 19.7693 39.943C20.0283 39.6841 20.1738 39.3328 20.1738 38.9664V34.4805C17.3093 34.4362 14.5715 33.2789 12.5426 31.25C10.8556 29.563 9.7713 27.3859 9.42833 25.0534C7.09576 24.7104 4.91867 23.6261 3.23164 21.9391C1.16245 19.8699 0 17.0634 0 14.1372V3.10367H9.31099V0ZM12.756 3.44505V23.4482C12.756 25.4608 13.5555 27.3909 14.9786 28.8141C16.4018 30.2372 18.3319 31.0367 20.3445 31.0367H23.6189V38.9664C23.6189 40.2464 23.1104 41.474 22.2053 42.3792C21.3002 43.2841 20.0727 43.7927 18.7927 43.7927C18.0148 43.7927 17.2688 44.1016 16.7188 44.6518C16.2091 45.1615 15.9064 45.8393 15.8647 46.5549H34.1354C34.0938 45.8393 33.7909 45.1615 33.2812 44.6518C32.7313 44.1016 31.9852 43.7927 31.2073 43.7927C29.9273 43.7927 28.6997 43.2841 27.7948 42.3792C26.8896 41.474 26.3812 40.2464 26.3812 38.9664V31.0367H29.6555C31.668 31.0367 33.5982 30.2372 35.0214 28.8141C36.4445 27.3909 37.244 25.4608 37.244 23.4482V3.44505H12.756ZM9.31099 6.54872H3.44505V14.1372C3.44505 16.1498 4.24456 18.0799 5.66766 19.503C6.6774 20.5128 7.9424 21.2086 9.31099 21.5276V6.54872ZM40.6891 21.5276V6.54872H46.5549V14.1372C46.5549 16.1498 45.7555 18.0799 44.3323 19.503C43.3227 20.5128 42.0575 21.2086 40.6891 21.5276Z" fill="white"/>
</svg>
