<svg width="30" height="33" viewBox="0 0 30 33" fill="none" xmlns="http://www.w3.org/2000/svg">
<path d="M21.9764 9.32341C21.8806 9.22027 21.7546 9.15606 21.6197 9.14173C21.4849 9.12739 21.3496 9.16381 21.2369 9.24478C21.1242 9.32575 21.0411 9.44626 21.0017 9.58577C20.9623 9.72529 20.9691 9.87519 21.0209 10.0099C21.0728 10.1447 21.1664 10.2559 21.2859 10.3247C21.4053 10.3935 21.5433 10.4155 21.6762 10.3871C21.8091 10.3587 21.9288 10.2816 22.0148 10.169C22.1008 10.0563 22.1478 9.91501 22.1479 9.7692C22.1475 9.60212 22.0859 9.44194 21.9764 9.32341Z" fill="white"/>
<path d="M8.78583 18.1543H4.10158C3.94624 18.1543 3.79726 18.2207 3.68742 18.3389C3.57758 18.4571 3.51587 18.6174 3.51587 18.7846V23.8282C3.51587 23.9954 3.57758 24.1557 3.68742 24.2739C3.79726 24.3921 3.94624 24.4585 4.10158 24.4585H8.78583C8.94117 24.4585 9.09014 24.3921 9.19999 24.2739C9.30983 24.1557 9.37154 23.9954 9.37154 23.8282V18.7846C9.37154 18.6174 9.30983 18.4571 9.19999 18.3389C9.09014 18.2207 8.94117 18.1543 8.78583 18.1543ZM8.20012 23.1979H4.68729V19.4148H8.20297L8.20012 23.1979Z" fill="white"/>
<path d="M29.6386 13.5993C29.5315 13.5515 29.4137 13.539 29.3 13.5634C29.1863 13.5878 29.0819 13.6479 29 13.7361L23.0293 20.1609L16.0715 27.6503L12.4216 31.5779C12.3396 31.6661 12.2838 31.7784 12.2611 31.9007C12.2385 32.023 12.2501 32.1498 12.2945 32.265C12.3388 32.3802 12.4139 32.4786 12.5103 32.5479C12.6067 32.6171 12.72 32.654 12.8358 32.654H29.4143C29.5696 32.654 29.7186 32.5876 29.8284 32.4694C29.9383 32.3512 30 32.1909 30 32.0237V14.1819C30.0001 14.0572 29.9657 13.9353 29.9014 13.8316C29.8371 13.7279 29.7456 13.647 29.6386 13.5993ZM28.8278 31.3942H14.2465L16.4822 28.9885L17.0415 29.5903C17.1514 29.7085 17.3004 29.775 17.4558 29.775C17.6112 29.775 17.7602 29.7085 17.8701 29.5903C17.98 29.4721 18.0417 29.3117 18.0417 29.1445C18.0417 28.9773 17.98 28.8169 17.8701 28.6987L17.3108 28.0969L18.8022 26.492L19.3615 27.0938C19.4714 27.2121 19.6204 27.2785 19.7758 27.2785C19.9312 27.2785 20.0802 27.2121 20.1901 27.0938C20.2999 26.9756 20.3617 26.8152 20.3617 26.648C20.3617 26.4808 20.2999 26.3205 20.1901 26.2022L19.6308 25.6004L21.1222 23.9956L21.6815 24.5974C21.7359 24.6559 21.8005 24.7024 21.8716 24.734C21.9426 24.7657 22.0188 24.782 22.0958 24.782C22.1727 24.782 22.2489 24.7657 22.32 24.734C22.3911 24.7024 22.4556 24.6559 22.51 24.5974C22.5644 24.5388 22.6076 24.4693 22.637 24.3928C22.6665 24.3164 22.6816 24.2344 22.6816 24.1516C22.6816 24.0688 22.6665 23.9868 22.637 23.9103C22.6076 23.8338 22.5644 23.7643 22.51 23.7058L21.9508 23.104L23.4422 21.4991L24.0015 22.1009C24.1113 22.2192 24.2604 22.2856 24.4157 22.2856C24.5711 22.2856 24.7201 22.2192 24.83 22.1009C24.9399 21.9827 25.0016 21.8223 25.0016 21.6551C25.0016 21.4879 24.9399 21.3276 24.83 21.2093L24.2707 20.6075L25.7622 19.0026L26.3214 19.6045C26.4313 19.7227 26.5803 19.7891 26.7357 19.7891C26.8911 19.7891 27.0401 19.7227 27.15 19.6045C27.2599 19.4862 27.3216 19.3259 27.3216 19.1587C27.3216 18.9915 27.2599 18.8311 27.15 18.7129L26.5907 18.111L28.8271 15.7053L28.8278 31.3942Z" fill="white"/>
<path d="M26.7086 21.2101C26.6015 21.1624 26.4837 21.1499 26.37 21.1742C26.2563 21.1986 26.1519 21.2587 26.07 21.3469L19.4908 28.4282C19.4088 28.5163 19.353 28.6286 19.3304 28.7509C19.3077 28.8732 19.3193 29 19.3637 29.1152C19.408 29.2304 19.4832 29.3288 19.5795 29.3981C19.6759 29.4673 19.7892 29.5043 19.905 29.5042H26.4843C26.6396 29.5042 26.7886 29.4378 26.8984 29.3196C27.0083 29.2014 27.07 29.0411 27.07 28.874V21.7927C27.0701 21.668 27.0358 21.5461 26.9714 21.4424C26.9071 21.3387 26.8156 21.2579 26.7086 21.2101ZM25.8986 28.2422H21.32L25.8986 23.3153V28.2422Z" fill="white"/>
<path d="M27.1322 9.78521C27.0532 9.70021 26.9532 9.64131 26.8441 9.61543C26.735 9.58956 26.6213 9.59779 26.5165 9.63917L22.5165 11.2156C22.436 11.2469 22.3629 11.2967 22.3022 11.3616L21.1779 12.5722L13.8323 4.66777C13.7779 4.6092 13.7133 4.56275 13.6422 4.53105C13.5711 4.49935 13.4949 4.48304 13.418 4.48304C13.341 4.48304 13.2649 4.49935 13.1938 4.53105C13.1227 4.56275 13.0581 4.6092 13.0037 4.66777L4.16164 14.1824H2.00023L13.418 1.89615L19.6837 8.63843C19.7935 8.75666 19.9426 8.82309 20.0979 8.82309C20.2533 8.82309 20.4023 8.75666 20.5122 8.63843C20.6221 8.5202 20.6838 8.35984 20.6838 8.19264C20.6838 8.02543 20.6221 7.86507 20.5122 7.74684L13.8323 0.558756C13.7779 0.500191 13.7133 0.453732 13.6422 0.422035C13.5711 0.390338 13.4949 0.374023 13.418 0.374023C13.341 0.374023 13.2649 0.390338 13.1938 0.422035C13.1227 0.453732 13.0581 0.500191 13.0037 0.558756L0.171674 14.3669C0.0897112 14.4551 0.0338881 14.5674 0.011268 14.6897C-0.0113521 14.812 0.00024728 14.9387 0.0445985 15.0539C0.0889498 15.1691 0.16406 15.2676 0.260424 15.3368C0.356789 15.4061 0.470078 15.443 0.585956 15.443H1.17167V32.0258C1.17167 32.193 1.23337 32.3533 1.34322 32.4715C1.45306 32.5897 1.60204 32.6561 1.75738 32.6561H11.0716C11.227 32.6561 11.3761 32.5897 11.486 32.4714C11.5959 32.3531 11.6577 32.1927 11.6577 32.0254C11.6577 31.8582 11.5959 31.6978 11.486 31.5795C11.3761 31.4612 11.227 31.3948 11.0716 31.3948H2.3438V15.4437H4.4045C4.55985 15.4437 4.70884 15.3774 4.81878 15.2593L13.418 6.00516L20.3465 13.4607L11.6602 22.814V17.1455H15.7615C15.917 17.1455 16.066 17.079 16.176 16.9607C16.2859 16.8425 16.3476 16.6821 16.3476 16.5148C16.3476 16.3476 16.2859 16.1871 16.176 16.0689C16.066 15.9506 15.917 15.8842 15.7615 15.8842H11.0716C10.9162 15.8842 10.7673 15.9506 10.6574 16.0688C10.5476 16.187 10.4859 16.3473 10.4859 16.5144V23.8286C10.4859 23.9001 10.4972 23.971 10.5194 24.0384L10.0002 24.6033C9.56706 25.0863 9.3275 25.7329 9.33305 26.404C9.3386 27.0751 9.58881 27.717 10.0298 28.1916C10.4708 28.6661 11.0674 28.9354 11.6911 28.9414C12.3147 28.9473 12.9156 28.6895 13.3644 28.2235L18.3058 22.9062C18.4157 22.788 18.4774 22.6276 18.4774 22.4604C18.4774 22.2932 18.4157 22.1329 18.3058 22.0146C18.1959 21.8964 18.0469 21.83 17.8915 21.83C17.7361 21.83 17.5871 21.8964 17.4772 22.0146L13.7308 26.046L12.0237 24.209L22.7286 12.6867L24.4358 14.5237L20.3451 18.9256C20.2907 18.9841 20.2475 19.0536 20.2181 19.1301C20.1886 19.2066 20.1735 19.2886 20.1735 19.3714C20.1735 19.4542 20.1886 19.5361 20.2181 19.6126C20.2475 19.6891 20.2907 19.7586 20.3451 19.8172C20.3995 19.8757 20.4641 19.9221 20.5352 19.9538C20.6062 19.9855 20.6824 20.0018 20.7594 20.0018C20.8363 20.0018 20.9125 19.9855 20.9836 19.9538C21.0547 19.9221 21.1192 19.8757 21.1736 19.8172L25.6672 14.9818C25.7275 14.9165 25.7738 14.8378 25.8029 14.7512L27.2679 10.447C27.3062 10.3342 27.3138 10.212 27.2897 10.0948C27.2657 9.97756 27.211 9.87015 27.1322 9.78521ZM12.9023 26.9345L12.533 27.3319C12.3063 27.5738 11.9998 27.7092 11.6805 27.7085C11.3612 27.7078 11.0552 27.571 10.8294 27.3281C10.6037 27.0851 10.4765 26.7558 10.4759 26.4123C10.4752 26.0687 10.6011 25.7389 10.8259 25.4949L11.1952 25.0975L12.9023 26.9345ZM25.0243 13.3731L23.7972 12.0526L25.7329 11.2902L25.0243 13.3731Z" fill="white"/>
<path d="M19.7279 20.4811C19.632 20.3777 19.5058 20.3134 19.3707 20.299C19.2357 20.2846 19.1002 20.321 18.9873 20.402C18.8745 20.4831 18.7912 20.6038 18.7518 20.7435C18.7123 20.8832 18.7191 21.0333 18.771 21.1682C18.8229 21.3031 18.9166 21.4145 19.0363 21.4834C19.156 21.5522 19.2941 21.5743 19.4272 21.5459C19.5603 21.5174 19.6801 21.4401 19.7662 21.3273C19.8523 21.2144 19.8993 21.0729 19.8993 20.9269C19.8989 20.7598 19.8373 20.5996 19.7279 20.4811Z" fill="white"/>
<path d="M13.418 9.89502C12.9774 9.89472 12.5467 10.035 12.1804 10.2982C11.814 10.5614 11.5284 10.9357 11.3597 11.3736C11.1911 11.8115 11.147 12.2935 11.2329 12.7584C11.3189 13.2233 11.5311 13.6503 11.8427 13.9854C12.1543 14.3205 12.5513 14.5486 12.9834 14.6408C13.4155 14.733 13.8633 14.6852 14.2702 14.5035C14.6771 14.3217 15.0247 14.0142 15.269 13.6197C15.5134 13.2253 15.6435 12.7618 15.6429 12.2877C15.6414 11.6534 15.4065 11.0455 14.9895 10.5971C14.5725 10.1487 14.0075 9.89624 13.418 9.89502ZM13.418 13.426C13.2094 13.426 13.0056 13.3595 12.8321 13.2349C12.6587 13.1103 12.5235 12.9332 12.4436 12.7259C12.3636 12.5187 12.3426 12.2906 12.383 12.0704C12.4235 11.8503 12.5237 11.648 12.671 11.4891C12.8182 11.3303 13.0059 11.2219 13.2104 11.1777C13.4149 11.1336 13.6269 11.1556 13.8197 11.2411C14.0125 11.3265 14.1775 11.4716 14.2938 11.6578C14.41 11.8441 14.4724 12.0633 14.473 12.2877C14.4732 12.437 14.4462 12.5849 14.3933 12.723C14.3404 12.861 14.2627 12.9865 14.1648 13.0922C14.0668 13.1979 13.9504 13.2818 13.8222 13.3391C13.6941 13.3964 13.5567 13.4259 13.418 13.426Z" fill="white"/>
</svg>
